<svg id="Layer_1" data-name="Layer 1" xmlns="http://www.w3.org/2000/svg" viewBox="0 0 545.54 861.93"><defs><style>.cls-1{fill:#333;}.cls-2{fill:#e8b79a;}.cls-3{fill:#fff;}</style></defs><path class="cls-1" d="M298.27,337.56" transform="translate(-239.23 -81.03)"/><path class="cls-1" d="M247.78,381" transform="translate(-239.23 -81.03)"/><path class="cls-1" d="M291.64,490.9c-51.87,116.28-43.86,106.56-51.84,186.15-2.38,23.7,3.07,46.93,8.84,69C278.43,859.79,381,939.42,498.55,942.52l13.36.35c121.91,3.22,231.26-76.58,263.33-194.25A272.76,272.76,0,0,0,725.51,507.4l-27.86-35-10.58,43.43A155.88,155.88,0,0,1,535.15,635c-1.71,0-3.42,0-5.12-.08-43.78-1.43-87.28-30.81-124.71-71C356,511.09,316.64,442.55,299.5,370.92c-2.57-10.71-5.58-22-8.35-33.47A180.37,180.37,0,0,1,300.32,225h0v0c0,79.41,64.61,144,144,144,66,0,121.67-44.58,138.66-105.19a277.49,277.49,0,0,1,53.24,26.52,40.1,40.1,0,0,0,43.85.26l23.51-15.25c-46.77-9-77.54-30.13-92.92-39.19,59.25-14,94.51-25.2,122.68-53.37h0A49.8,49.8,0,0,0,671.9,176a165.27,165.27,0,0,1-36.54,16.79c-23.79,7.6-49.48-4.17-59.78-26.92A143.83,143.83,0,0,0,353.77,113.2h0c-47.91,15.37-82.18,54.51-98.87,102-15.67,44.6-9.77,122.73-1.57,149.6" transform="translate(-239.23 -81.03)"/><path class="cls-2" d="M535.15,678.87a199.68,199.68,0,0,0,178.78-109.8,226.16,226.16,0,0,1,27,108v.72a105.32,105.32,0,0,1-72.74,99.62,228.54,228.54,0,0,1-70.35,11c-114.44,0-209.5-84.5-226.08-194.37C408.14,645.27,468,678.87,535.15,678.87Z" transform="translate(-239.23 -81.03)"/><path class="cls-3" d="M512.3,905.69c-126.08,0-228.66-102.57-228.66-228.64a227.47,227.47,0,0,1,42.15-132.34c-.27,5-.45,10-.45,15,0,150.24,122.24,272.47,272.5,272.47a271.62,271.62,0,0,0,97-17.71C653.09,869.84,586.81,905.69,512.3,905.69Z" transform="translate(-239.23 -81.03)"/><ellipse class="cls-3" cx="371.76" cy="243.56" rx="51.04" ry="104.79" transform="translate(-302.32 70.7) rotate(-21.31)"/></svg>