<?xml version="1.0" encoding="utf-8"?>
<!-- Generator: Adobe Illustrator 26.0.2, SVG Export Plug-In . SVG Version: 6.00 Build 0)  -->
<svg version="1.1" id="Layer_1" xmlns="http://www.w3.org/2000/svg" xmlns:xlink="http://www.w3.org/1999/xlink" x="0px" y="0px"
	 viewBox="0 0 1024 1024" style="enable-background:new 0 0 1024 1024;" xml:space="preserve">
<style type="text/css">
	.st0{fill:url(#SVGID_1_);}
	.st1{fill:#333333;}
	.st2{fill:#E8B79A;}
	.st3{fill:#FFFFFF;}
</style>
<linearGradient id="SVGID_1_" gradientUnits="userSpaceOnUse" x1="152.6302" y1="875.2078" x2="872.8514" y2="147.2947">
	<stop  offset="2.978380e-02" style="stop-color:#97FF8A"/>
	<stop  offset="0.7348" style="stop-color:#DAFF8A"/>
</linearGradient>
<rect x="0" class="st0" width="1024" height="1024"/>
<g>
	<g>
		<path class="st1" d="M298.3,337.6"/>
		<path class="st1" d="M247.8,381"/>
		<path class="st1" d="M291.6,490.9c-51.9,116.3-43.9,106.6-51.8,186.2c-2.4,23.7,3.1,46.9,8.8,69
			C278.4,859.8,381,939.4,498.5,942.5l13.4,0.4c121.9,3.2,231.3-76.6,263.3-194.2c6.2-22.8,9.5-46.8,9.5-71.6
			c0-62.3-20.5-121-59.3-169.6l-27.9-35l-10.6,43.4C670,586,607.5,635,535.2,635c-1.7,0-3.4,0-5.1-0.1c-43.8-1.4-87.3-30.8-124.7-71
			c-49.3-52.9-88.7-121.4-105.8-193.1c-2.6-10.7-5.6-22-8.3-33.5c-9-37.5-5.9-76.9,9.2-112.4v0v0c0,79.4,64.6,144,144,144
			c66,0,121.7-44.6,138.7-105.2c15.7,5.7,36.3,15.4,53.2,26.5c13.3,8.7,30.5,8.9,43.9,0.3l23.5-15.3c-46.8-9-77.5-30.1-92.9-39.2
			c59.2-14,94.5-25.2,122.7-53.4v0c-16.4-16.4-41.8-19.1-61.5-6.9c-11.5,7.1-23.8,12.7-36.5,16.8c-23.8,7.6-49.5-4.2-59.8-26.9
			C553,115.9,502.7,81,444.3,81c-34.3,0-65.8,12.1-90.6,32.2l0,0c-47.9,15.4-82.2,54.5-98.9,102c-15.7,44.6-9.8,122.7-1.6,149.6"/>
	</g>
	<path class="st2" d="M535.2,678.9c77.1,0,145.4-43.4,178.8-109.8c17.8,32.9,27,69.6,27,108v0.7c-0.1,45.3-29.6,85.7-72.7,99.6
		c-22.5,7.3-46.1,11-70.3,11c-114.4,0-209.5-84.5-226.1-194.4C408.1,645.3,468,678.9,535.2,678.9z"/>
	<path class="st3" d="M512.3,905.7c-126.1,0-228.7-102.6-228.7-228.6c0-48.2,15-94.2,42.2-132.3c-0.3,5-0.5,10-0.5,15
		c0,150.2,122.2,272.5,272.5,272.5c33.7,0,66.4-6,97-17.7C653.1,869.8,586.8,905.7,512.3,905.7z"/>
	
		<ellipse transform="matrix(0.9316 -0.3634 0.3634 0.9316 -63.0899 151.731)" class="st3" cx="371.8" cy="243.6" rx="51" ry="104.8"/>
</g>
</svg>
